# xmcd
#
# Track frame offsets:
#	150
#	12735
#	27216
#	45170
#	62818
#	80785
#	98625
#	115122
#	131533
#	148374
#	161974
#	180299
#	199179
#	214551
#	227808
#	244685
#
# Disc length: 3486 seconds
#
# Revision: 0
# Processed by: cddbd v1.5.2PL0 Copyright (c) Steve Scherf et al.
# Submitted via: audiograbber 1.83.01
#
DISCID=dc0d9c10
DTITLE=Various Artist - Die Deutschen Hits
DYEAR=1987
DGENRE=Pop
TTITLE0=Jürgen Von Der Lippe - Guten Morgen Liebe Sorgen
TTITLE1=Die Flippers - Mexico
TTITLE2=Roland Kaiser - Haut An Haut
TTITLE3=Andreas Martin - Du Bist Alles (Maria, Maria)
TTITLE4=G.G. Anderson - Unser Himmelbett War Nur Der Strand
TTITLE5=Leonard - Schau Mir In Die Augen
TTITLE6=Tommy Steiner - Parlez-Vous-Francais
TTITLE7=Nicole - Song For The World
TTITLE8=Udo Jürgens and Sonja Kimmons - Ich Will - Ich Kann, I Can - I Will
TTITLE9=Wind - Laß Die Sonne In Dein Herz
TTITLE10=Daliah Lavi - Love
TTITLE11=Caterina Valente and Gianni Morandi and Joy Fleming and Edo Zanki - Wenn Man
TTITLE11=Freunde Hat
TTITLE12=Panama Club - Eine Insel Schenk'  Ich Dir
TTITLE13=Spider Murphy Gang - Pfeffer Und Salz
TTITLE14=Peter Petrel - Ich Fahr So Gerne Rad (The Bike Song)
TTITLE15=Tony Marshall - Wir Sind Die Champions (Olé, Olé, Olé)
EXTD=
EXTT0=
EXTT1=
EXTT2=
EXTT3=
EXTT4=
EXTT5=
EXTT6=
EXTT7=
EXTT8=
EXTT9=
EXTT10=
EXTT11=
EXTT12=
EXTT13=
EXTT14=
EXTT15=
PLAYORDER=
